<?xml version="1.0" encoding="UTF-8"?>
<svg id="Layer_1" data-name="Layer 1" xmlns="http://www.w3.org/2000/svg" viewBox="0 0 24 24">
  <defs>
    <style>
      .cls-1 {
        fill: #9cf238;
        stroke: #5e567f;
        stroke-miterlimit: 10;
        stroke-width: .7px;
      }

      .cls-2 {
        fill: #5d567e;
        stroke-width: 0px;
      }
    </style>
  </defs>
  <g id="Layer_1-2" data-name="Layer 1">
    <circle class="cls-1" cx="12" cy="12" r="11.03"/>
  </g>
  <g id="Layer_5" data-name="Layer 5">
    <path class="cls-2" d="M8.3,17.16h-2.24c-.34,0-.61-.27-.61-.61v-5.64c0-.34.27-.61.61-.61h2.24c.34,0,.61.27.61.61v5.64c0,.34-.27.61-.61.61Z"/>
    <path class="cls-2" d="M14.24,9.5c-.26.04-.48-.2-.43-.46.3-1.49,1.39-5.19-.98-5.66-1.64,0-.86,2.96-1,3.42s-2.23,2.6-2.37,3.42c-.14.82-.18,6.1,0,6.47.41.81,1.45,1.34,2.27,1.57.71.2,1.46.24,2.2.17.91-.09,1.83-.28,2.66-.67.35-.17.64-.41.85-.74.09-.14.18-.31.18-.48,0-.05-.08-.4-.18-.35.55-.27,1.27-1.09.46-1.91.51-.5,1.14-1.33.14-2.41.28-.17.44-.48.49-.84.1-.78-.5-1.5-1.28-1.6-1.09-.15-2.34-.03-3.01.07Z"/>
  </g>
</svg>